<?xml version="1.0" encoding="UTF-8"?>
<svg id="Redrawn" xmlns="http://www.w3.org/2000/svg" viewBox="0 0 728.56 63.6">
  <defs>
    <style>
      .cls-1 {
        fill: #fff;
        stroke-width: 0px;
      }
    </style>
  </defs>
  <path class="cls-1" d="M667.37,28.25l27.11,33.83h-17.63l-22.52-27.87h-11.58l31.29-32.67h20.07s-26.74,26.72-26.74,26.72ZM627.94,62.07h14.81V1.53h-14.81v60.55ZM713.75,62.07h14.81V1.53h-14.81s0,60.55,0,60.55ZM602.93,32.5c-3.41-3.02-8.04-4.76-13.75-5.18l-25.59-1.94c-2.42-.19-4.34-.9-5.71-2.11-1.41-1.23-2.13-2.93-2.13-5.04,0-1.88.71-3.36,2.1-4.37,1.31-.96,2.93-1.65,4.8-2.07,1.82-.4,3.77-.63,5.79-.66,1.99-.03,3.67-.04,5.05-.04,1.59,0,3.42.02,5.48.04,2.09.03,4.1.25,5.95.66,1.91.41,3.55,1.14,4.87,2.17,1.27.99,1.97,2.41,2.07,4.23h14.95c-.07-3.88-1.02-7.02-2.82-9.34-1.89-2.44-4.41-4.35-7.5-5.66-3.12-1.33-6.7-2.2-10.64-2.59-7.73-.77-15.82-.88-23.91.18-3.91.51-7.49,1.48-10.65,2.87-3.13,1.38-5.72,3.3-7.67,5.72-1.94,2.39-2.93,5.56-2.93,9.42,0,2.44.46,4.75,1.37,6.86.9,2.11,2.22,3.98,3.89,5.55,1.69,1.59,3.74,2.9,6.09,3.92,2.35,1.02,5.05,1.66,8.03,1.9l25.7,2.03c2.2.32,3.93.94,5.19,1.85,1.32.95,2,2.52,2,4.65,0,1.97-.87,3.46-2.58,4.45-1.59.91-3.49,1.57-5.64,1.95-2.12.37-4.34.56-6.59.56h-5.42c-1.59,0-3.4-.01-5.43-.05-2.06-.03-4.03-.27-5.86-.71-1.87-.44-3.48-1.19-4.8-2.21-1.27-.99-1.97-2.38-2.08-4.14h-14.95c.08,3.76,1.04,6.82,2.87,9.11,1.93,2.41,4.49,4.32,7.62,5.67,3.16,1.36,6.74,2.28,10.65,2.73,3.95.46,7.94.69,11.87.69s8.3-.22,12.53-.64c4.19-.42,8.05-1.33,11.47-2.69,3.38-1.35,6.16-3.32,8.26-5.86,2.08-2.51,3.14-5.92,3.14-10.16,0-4.81-1.71-8.77-5.09-11.76M397.83,36.84h43.7v-10.78h-43.7v-13.05h43.7s0-11.49,0-11.49h-58.51v60.55h58.51v-11.49h-43.7v-13.75ZM457.61,1.53l25.15,60.55h20.26l25.14-60.55h-15.3s-19.98,48.1-19.98,48.1L472.91,1.53h-15.29ZM195.24,62.07h14.81s0-49.06,0-49.06h25.93V1.53h-66.67v11.49h25.93v49.06ZM254.5,62.07h14.81V1.53h-14.81s0,60.55,0,60.55ZM345.82,45.77c-1.66,1.25-3.55,2.31-5.64,3.16-2.08.84-4.33,1.47-6.66,1.87-2.32.4-4.54.61-6.59.61-7.54,0-13.88-1.75-17.71-5.2-3.85-3.47-5.8-8.31-5.8-14.4,0-6.15,1.93-11.01,5.75-14.45,3.8-3.42,10.15-5.16,17.76-5.16,2.04,0,4.22.19,6.48.56,2.27.38,4.48.97,6.55,1.78,2.09.81,3.96,1.86,5.55,3.12,1.52,1.2,2.61,2.66,3.24,4.32h16.08c-.68-3.77-2.13-7.05-4.3-9.75-2.3-2.86-5.18-5.22-8.57-7.03-3.41-1.81-7.29-3.15-11.52-3.96C336.19.42,331.75,0,327.25,0c-6,0-11.48.74-16.28,2.19-4.8,1.45-8.95,3.58-12.36,6.32-3.4,2.74-6.05,6.11-7.89,10.02-1.84,3.91-2.77,8.4-2.77,13.35s.88,9.45,2.61,13.36c1.73,3.91,4.27,7.26,7.56,9.97,3.3,2.71,7.38,4.81,12.13,6.23,4.78,1.43,10.28,2.15,16.34,2.15,4.5,0,8.96-.43,13.24-1.28,4.27-.85,8.21-2.21,11.68-4.06,3.47-1.84,6.42-4.21,8.8-7.08,2.24-2.7,3.78-5.97,4.6-9.75h-15.74c-.64,1.67-1.76,3.12-3.36,4.33h0ZM60.96,1.53l-24.1,23.14L17.57,1.53H0v60.55h14.29s0-44.53,0-44.53l26.74,30.68v-9.76l20.24-19.68v43.29h14.29V1.53h-14.6ZM138.83,38.81l-10.32-24.83-10.32,24.83h20.63ZM138.64,1.53l25.15,60.55h-15.3s-5.46-13.13-5.46-13.13h-29.05l-5.46,13.13h-15.3L118.38,1.53h20.26Z"/>
</svg>